#!OML:ASF F:\VICON\USERDATA\INSTALL\Justin_Nancy\Justin_Nancy.ASF
:FULLY-SPECIFIED
:DEGREES
191
root 18.0318 18.1945 2.25952 199.437 83.5203 196.101
lowerback 5.9391 3.39322 -1.76302
upperback -1.44127 4.39063 -0.0371554
thorax -4.95124 2.22505 0.498351
lowerneck -18.0036 -6.78881 -10.8495
upperneck 14.956 -8.20186 9.39144
head 8.46315 -3.58454 3.87675
rclavicle -1.24737e-014 7.15625e-015
rhumerus -41.3433 16.1782 -84.5946
rradius 125.455
rwrist -17.9994
rhand -10.6205 29.1375
rfingers 7.12502
rthumb 15.3861 -0.269943
lclavicle -1.24737e-014 7.15625e-015
lhumerus -67.8158 -3.70375 91.3291
lradius 101.073
lwrist 18.0718
lhand -11.8007 7.92591
lfingers 7.12502
lthumb 14.249 37.4171
rfemur 8.50798 4.36427 26.9605
rtibia 30.2245
rfoot 19.824 5.04259
rtoes 4.89969
lfemur -31.5929 -5.74487 -20.8192
ltibia 34.2078
lfoot 2.58271 1.99041
ltoes -13.6708
192
root 18.3825 18.2082 2.26921 199.251 83.5754 196.313
lowerback 6.09078 3.16713 -1.09399
upperback -1.50058 4.11786 -0.494919
thorax -5.00902 2.06351 -0.327241
lowerneck -18.2201 -6.35704 -11.6116
upperneck 15.5004 -7.55776 10.1237
head 8.67798 -3.24468 4.35176
rclavicle 2.32827e-014 -1.19271e-015
rhumerus -42.4458 17.8925 -86.3917
rradius 125.698
rwrist -18.4325
rhand -9.72639 28.7148
rfingers 7.12502
rthumb 16.2471 -0.624424
lclavicle 2.32827e-014 -1.19271e-015
lhumerus -68.5175 -3.64049 90.5069
lradius 101.888
lwrist 18.5487
lhand -11.0576 8.47267
lfingers 7.12502
lthumb 14.965 37.912
rfemur 9.20068 6.08042 27.512
rtibia 31.1945
rfoot 20.2719 4.38169
rtoes 8.16234
lfemur -30.9278 -5.32697 -21.2065
ltibia 31.4992
lfoot 3.75552 1.47364
ltoes -14.9736
193
root 18.7285 18.2268 2.26734 204.24 83.5278 201.558
lowerback 6.16948 3.06425 0.530565
upperback -1.64559 4.08453 -1.07287
thorax -5.04773 1.98936 -1.83242
lowerneck -18.5542 -6.03801 -12.2919
upperneck 16.0587 -7.09287 10.9353
head 8.93176 -2.9734 4.82451
rclavicle -7.65321e-015 7.95139e-015
rhumerus -42.9186 17.8878 -89.0717
rradius 124.965
rwrist -17.6442
rhand -9.14031 28.7101
rfingers 7.12502
rthumb 16.8114 -0.582111
lclavicle -7.65321e-015 7.95139e-015
lhumerus -69.1121 -4.42263 89.5892
lradius 102.672
lwrist 19.2686
lhand -11.7894 8.31907
lfingers 7.12502
lthumb 14.2599 37.8095
rfemur 9.4595 6.73309 28.2536
rtibia 32.4734
rfoot 20.0615 4.50935
rtoes 5.05119
lfemur -30.467 -5.57554 -20.6508
ltibia 29.4271
lfoot 4.22179 2.25546
ltoes -12.4405
194
root 19.0686 18.2314 2.2648 207.41 83.4019 205.056
lowerback 6.13509 3.11856 0.768771
upperback -1.58904 4.18986 -0.744775
thorax -4.97336 2.03963 -1.63163
lowerneck -19.1558 -5.80148 -14.0051
upperneck 16.5994 -6.30259 11.2237
head 9.19201 -2.67216 5.33692
rclavicle -5.08889e-014 7.95139e-015
rhumerus -43.6205 18.7963 -89.8891
rradius 124.864
rwrist -17.9064
rhand -9.72503 28.4508
rfingers 7.12502
rthumb 16.2484 -0.888324
lclavicle -5.08889e-014 7.95139e-015
lhumerus -69.4333 -4.34932 90.278
lradius 103.184
lwrist 19.2522
lhand -14.9743 6.86148
lfingers 7.12502
lthumb 11.1895 36.5431
rfemur 9.57775 6.39432 28.4884
rtibia 34.0947
rfoot 19.2839 4.91985
rtoes 1.45245
lfemur -30.1047 -5.97525 -20.3067
ltibia 27.9444
lfoot 4.66156 3.05595
ltoes -11.012
195
root 19.3981 18.2123 2.26964 206.68 83.3474 204.922
lowerback 6.22832 3.28492 -1.02413
upperback -1.30719 4.33777 0.727864
thorax -4.97794 2.18876 0.870565
lowerneck -20.0534 -5.94061 -17.1797
upperneck 17.7039 -5.60701 11.8243
head 9.76206 -2.48988 6.22244
rclavicle -3.81356e-014 7.35503e-015
rhumerus -44.3936 20.6159 -88.363
rradius 125.264
rwrist -18.9322
rhand -10.0585 27.9608
rfingers 7.12502
rthumb 15.9274 -1.40431
lclavicle -3.81356e-014 7.35503e-015
lhumerus -69.5253 -2.88729 92.6842
lradius 103.562
lwrist 18.5034
lhand -15.6546 6.2371
lfingers 7.12502
lthumb 10.5333 35.9532
rfemur 9.87809 6.03605 28.3085
rtibia 36.0498
rfoot 18.3097 3.83507
rtoes 1.48596
lfemur -29.5463 -5.60129 -20.7033
ltibia 26.9576
lfoot 5.83178 1.99367
ltoes -11.2123
196
root 19.7256 18.182 2.27762 207.078 83.3441 205.874
lowerback 6.42816 3.33483 -2.09592
upperback -1.1041 4.37013 1.72724
thorax -5.04356 2.25394 2.49144
lowerneck -20.3775 -5.90493 -19.1794
upperneck 18.009 -4.97275 12.1988
head 9.89612 -2.29487 6.8074
rclavicle -3.3701e-014 -6.28657e-015
rhumerus -44.9651 21.8504 -87.6165
rradius 125.208
rwrist -19.2955
rhand -9.13051 27.9704
rfingers 7.12502
rthumb 16.8208 -1.32103
lclavicle -3.3701e-014 -6.28657e-015
lhumerus -69.5216 -1.77134 94.2707
lradius 104.01
lwrist 18.4008
lhand -15.1147 6.4813
lfingers 7.12502
lthumb 11.0541 36.1702
rfemur 9.97108 5.96924 28.2941
rtibia 38.3734
rfoot 17.2166 1.70799
rtoes 3.72963
lfemur -28.967 -4.65097 -21.1665
ltibia 26.1966
lfoot 7.43986 -0.0133052
ltoes -15.4753
197
root 20.057 18.1612 2.28262 206.75 83.4549 205.978
lowerback 6.53851 3.24871 -2.56423
upperback -0.943821 4.23397 2.06554
thorax -4.99184 2.20457 3.11934
lowerneck -20.6109 -5.69523 -19.9269
upperneck 18.0739 -4.44756 12.4173
head 9.8938 -2.07653 7.10019
rclavicle 4.509e-014 8.84592e-015
rhumerus -45.4562 22.7242 -87.861
rradius 124.979
rwrist -18.8663
rhand -8.75702 27.8393
rfingers 7.12502
rthumb 17.1803 -1.42115
lclavicle 4.509e-014 8.84592e-015
lhumerus -69.3671 -1.1003 94.8811
lradius 104.486
lwrist 18.8274
lhand -15.5287 6.41609
lfingers 7.12502
lthumb 10.6548 36.1259
rfemur 9.60342 5.27911 27.8202
rtibia 41.0858
rfoot 16.0309 0.780632
rtoes 2.83832
lfemur -28.3103 -4.71844 -21.4294
ltibia 25.5964
lfoot 8.67419 0.567642
ltoes -13.7144
198
root 20.3833 18.1372 2.28206 205.693 83.4473 205.396
lowerback 6.82555 3.05733 -2.45215
upperback -0.816259 3.97248 1.91026
thorax -4.98055 2.06636 2.91467
lowerneck -18.9912 -6.10472 -13.0685
upperneck 15.834 -6.30411 8.03662
head 8.7535 -2.94826 4.03068
rclavicle 8.92357e-015 9.83984e-015
rhumerus -46.1152 23.3071 -88.8261
rradius 124.762
rwrist -18.4171
rhand -9.35088 28.4205
rfingers 7.12502
rthumb 16.6087 -0.888833
lclavicle 8.92357e-015 9.83984e-015
lhumerus -69.1284 -0.967293 94.6781
lradius 105.032
lwrist 19.4953
lhand -15.8878 6.61453
lfingers 7.12502
lthumb 10.3084 36.3419
rfemur 8.90749 3.47265 26.754
rtibia 44.0465
rfoot 14.9998 0.871372
rtoes 1.06863
lfemur -27.4156 -5.38463 -21.5973
ltibia 25.0379
lfoot 9.683 2.53694
ltoes -7.78358
199
root 20.7002 18.0662 2.29206 203.368 83.5304 203.574
lowerback 7.18586 2.85073 -2.36032
upperback -0.693985 3.6758 1.53562
thorax -5.00247 1.90778 2.49499
lowerneck -19.0589 -5.98802 -12.8217
upperneck 15.7207 -6.2783 8.40805
head 8.72748 -2.88021 4.12323
rclavicle -1.09254e-014 2.48481e-016
rhumerus -46.6722 23.5727 -90.0802
rradius 124.454
rwrist -18.635
rhand -9.56884 28.9146
rfingers 7.12502
rthumb 16.3988 -0.412159
lclavicle -1.09254e-014 2.48481e-016
lhumerus -68.8733 -1.02786 94.2564
lradius 105.586
lwrist 20.1508
lhand -16.1338 6.99859
lfingers 7.12502
lthumb 10.0711 36.7376
rfemur 8.2265 3.39755 26.4759
rtibia 47.1693
rfoot 13.6008 -1.98532
rtoes 3.14716
lfemur -26.5225 -4.68846 -22.3619
ltibia 24.6362
lfoot 11.5479 1.1487
ltoes -10.3905
200
root 21.0126 17.983 2.30481 200.354 83.6305 200.962
lowerback 7.51526 2.68103 -2.34178
upperback -0.600817 3.42172 1.12291
thorax -5.04692 1.77326 2.07407
lowerneck -18.7623 -5.8997 -12.6974
upperneck 15.2106 -6.31739 8.95053
head 8.52166 -2.83907 4.28529
rclavicle -6.70588e-015 3.37934e-015
rhumerus -47.0339 23.4437 -91.4371
rradius 123.988
rwrist -18.8782
rhand -9.87104 28.6725
rfingers 7.12502
rthumb 16.1078 -0.678075
lclavicle -6.70588e-015 3.37934e-015
lhumerus -68.3986 -1.12591 93.892
lradius 105.884
lwrist 20.2954
lhand -15.7355 6.96495
lfingers 7.12502
lthumb 10.4553 36.685
rfemur 7.30981 2.97573 25.788
rtibia 50.2675
rfoot 12.4762 -4.63604
rtoes 6.27551
lfemur -25.8449 -3.28739 -23.3814
ltibia 24.6182
lfoot 13.0655 -2.96538
ltoes -11.1499
201
root 21.3254 17.897 2.3137 199.702 83.5795 200.75
lowerback 7.84169 2.59722 -2.20961
upperback -0.520003 3.30582 0.927633
thorax -5.12019 1.70892 1.79928
lowerneck -18.4736 -5.62975 -11.9989
upperneck 14.81 -6.12564 8.81394
head 8.28562 -2.72551 4.14986
rclavicle -1.79652e-014 -6.95746e-015
rhumerus -47.5295 23.1018 -92.5849
rradius 123.419
rwrist -19.0628
rhand -9.83833 28.3535
rfingers 7.12502
rthumb 16.1393 -0.994487
lclavicle -1.79652e-014 -6.95746e-015
lhumerus -67.7788 -1.56095 93.8959
lradius 105.903
lwrist 20.0097
lhand -15.7495 6.54493
lfingers 7.12502
lthumb 10.4418 36.2656
rfemur 6.39605 2.16838 25.1807
rtibia 53.2073
rfoot 11.2485 -6.31434
rtoes 8.9173
lfemur -25.1665 -3.04193 -23.6986
ltibia 25.2191
lfoot 12.4181 -4.16048
ltoes -0.148786
202
root 21.6402 17.8169 2.32609 199.819 83.4954 201.37
lowerback 8.21041 2.6064 -2.2439
upperback -0.433046 3.30689 0.898767
thorax -5.23751 1.7101 1.77427
lowerneck -18.2587 -5.55693 -11.2095
upperneck 14.6231 -6.17786 8.42466
head 8.15149 -2.74668 3.88043
rclavicle 1.70955e-014 1.19271e-015
rhumerus -48.0062 22.4293 -93.193
rradius 122.865
rwrist -20.0729
rhand -7.78561 28.0386
rfingers 7.12502
rthumb 18.1151 -1.13786
lclavicle 1.70955e-014 1.19271e-015
lhumerus -67.1836 -2.55695 94.4431
lradius 105.931
lwrist 20.467
lhand -17.6543 6.21128
lfingers 7.12502
lthumb 8.60398 36.016
rfemur 5.51479 0.929003 24.5432
rtibia 55.8834
rfoot 10.0185 -6.93933
rtoes 9.21218
lfemur -24.4868 -2.88558 -23.8031
ltibia 26.6704
lfoot 9.25333 -4.30062
ltoes 3.55409
203
root 21.9501 17.7362 2.33996 199.245 83.6049 201.283
lowerback 8.67335 2.60892 -2.33103
upperback -0.398256 3.28625 0.788945
thorax -5.45963 1.70183 1.69198
lowerneck -17.865 -5.75854 -10.3078
upperneck 14.2126 -6.64447 8.06
head 7.94981 -2.95977 3.5483
rclavicle 5.04851e-014 3.37934e-015
rhumerus -48.2664 21.6337 -93.9715
rradius 122.086
rwrist -21.4922
rhand -6.03307 27.3194
rfingers 7.12502
rthumb 19.8006 -1.69208
lclavicle 5.04851e-014 3.37934e-015
lhumerus -66.6123 -3.28794 94.6583
lradius 106.211
lwrist 21.3821
lhand -18.474 6.32406
lfingers 7.12502
lthumb 7.81281 36.1597
rfemur 4.58848 -0.440958 23.6144
rtibia 58.3687
rfoot 8.67859 -7.34294
rtoes 8.58911
lfemur -23.9782 -1.99222 -24.0733
ltibia 28.8224
lfoot 5.49451 -4.97917
ltoes -1.90887
204
root 22.2532 17.6322 2.37442 204.041 83.3537 206.647
lowerback 9.24798 2.5745 -2.07077
upperback -0.359145 3.27414 1.05808
thorax -5.7436 1.69481 1.80468
lowerneck -17.7208 -5.90415 -10.1215
upperneck 14.1684 -6.88954 7.97956
head 7.92432 -3.07625 3.45987
rclavicle -1.4971e-014 -3.37934e-015
rhumerus -48.4649 20.6014 -94.7689
rradius 121.043
rwrist -22.9322
rhand -5.51698 26.5323
rfingers 7.12502
rthumb 20.2966 -2.42714
lclavicle -1.4971e-014 -3.37934e-015
lhumerus -65.7711 -3.80918 94.7259
lradius 106.43
lwrist 21.8186
lhand -17.0416 7.25205
lfingers 7.12502
lthumb 9.19525 37.0316
rfemur 3.73885 -1.75064 23.4782
rtibia 60.6701
rfoot 6.75847 -8.52872
rtoes 12.5624
lfemur -23.4834 -1.1983 -23.4151
ltibia 31.2952
lfoot 2.29995 -5.2827
ltoes -2.61461
205
root 22.5397 17.5213 2.39784 200.922 82.8596 204.079
lowerback 9.97684 2.39391 -2.69456
upperback -0.223289 2.97003 1.36711
thorax -6.04669 1.57164 2.49892
lowerneck -17.9322 -6.08881 -10.2552
upperneck 14.2463 -7.06825 7.85268
head 8.00369 -3.17611 3.41071
rclavicle 4.92644e-014 1.45113e-014
rhumerus -48.6928 19.8893 -94.8177
rradius 120.168
rwrist -25.0129
rhand -5.07318 25.823
rfingers 7.12502
rthumb 20.7231 -3.09058
lclavicle 4.92644e-014 1.45113e-014
lhumerus -64.557 -4.03621 95.3681
lradius 106.354
lwrist 21.7485
lhand -16.1359 7.87967
lfingers 7.12502
lthumb 10.069 37.6188
rfemur 2.88223 -4.03473 22.0673
rtibia 62.9015
rfoot 4.58072 -9.21862
rtoes 16.9181
lfemur -23.17 -1.54799 -23.576
ltibia 33.9917
lfoot -1.0028 -5.27981
ltoes -5.20873
